<svg width="514" height="70" viewBox="0 0 514 70" fill="none" xmlns="http://www.w3.org/2000/svg">
<path d="M23.7243 49.8432H24.8836C23.6909 53.9477 20.7009 55.9979 15.9176 55.9979C12.84 55.9979 10.2545 54.9502 8.15268 52.8548C6.05089 50.7594 5 47.9862 5 44.5308C5 40.9934 6.1343 38.1215 8.4029 35.9193C10.6715 33.7171 13.3529 32.616 16.4472 32.616C18.3113 32.616 20.0253 33.0268 21.5891 33.8444C23.153 34.6661 23.937 35.6645 23.937 36.8437C23.9349 37.2943 23.7825 37.7317 23.5033 38.0886C23.21 38.4742 22.7406 38.69 22.2522 38.6638C21.0845 38.6638 20.3756 37.99 20.1129 36.63C19.9044 35.6111 19.5749 34.8962 19.137 34.4936C18.6783 34.0868 17.7942 33.8855 16.4723 33.8855C14.1161 33.8855 12.3438 34.7031 11.1594 36.3424C9.9709 37.9818 9.37873 40.451 9.37873 43.7379C9.37873 47.1398 10.0126 49.798 11.2929 51.7209C12.5648 53.6396 14.4956 54.5969 17.077 54.5969C20.5591 54.5969 22.7776 53.0151 23.7243 49.8432ZM41.3226 18.7988V47.6986C41.3226 50.0076 41.3518 51.4579 41.4102 52.0578C41.4423 52.602 41.7171 53.1043 42.1608 53.43C42.6029 53.7505 43.3869 53.9066 44.5128 53.9066H45.1467V55.1228H33.5952V53.9066H34.3291C35.3884 53.9066 36.139 53.7628 36.5852 53.4711C37.0226 53.1969 37.3166 52.7482 37.3901 52.2426C37.4777 51.7167 37.5235 50.2007 37.5235 47.6986V26.3011C37.5235 24.029 37.3192 22.6034 36.9147 22.0076C36.5102 21.416 35.526 21.1243 33.9622 21.1243V19.9081C35.0339 19.9081 36.2975 19.7849 37.7445 19.5384C39.1958 19.2918 40.1966 19.0453 40.7388 18.7988H41.3226ZM75.0138 33.487V47.678C75.0138 50.0363 75.0471 51.5154 75.118 52.1153C75.1889 52.7151 75.4517 53.163 75.8979 53.4629C76.3483 53.7628 77.1489 53.9148 78.3124 53.9148V55.1269C75.6393 55.1638 73.6835 55.4473 72.4574 55.9732H72.1363C71.5775 55.0036 71.2773 53.3314 71.2439 50.9525C70.168 52.6288 68.9419 53.8861 67.5616 54.7324C66.1854 55.5747 64.6591 55.9979 62.9869 55.9979C61.544 55.9979 60.2721 55.6692 59.1628 55.0118C58.0577 54.3462 57.2945 53.541 56.8817 52.5878C56.4647 51.6428 56.2603 50.2048 56.2603 48.2861V40.9112C56.2603 38.4132 56.2186 36.8848 56.131 36.3301C56.07 35.8112 55.7597 35.3526 55.297 35.0975C54.8341 34.8387 53.975 34.7031 52.7281 34.7031V33.487H60.0594V48.4956C60.0594 49.9747 60.147 51.0512 60.3221 51.7209C60.4973 52.3905 60.9476 52.974 61.6691 53.4752C62.3905 53.9765 63.2246 54.2312 64.1712 54.2312C65.5265 54.2312 66.8235 53.7834 68.0495 52.8959C69.2797 52.0043 70.1221 51.0635 70.5683 50.0692C71.0187 49.0749 71.2439 47.6493 71.2439 45.8004V40.9112C71.2439 38.5529 71.2189 37.1149 71.1605 36.6054C71.1086 36.0968 70.8716 35.624 70.4933 35.2742C70.0929 34.8921 69.2714 34.7031 68.0245 34.7031H67.4699V33.487H75.0138ZM93.3461 37.4764V45.9606C93.3461 48.1423 93.492 49.7159 93.7798 50.6773C94.0717 51.6346 94.7681 52.5549 95.8774 53.4382C96.9867 54.3175 98.2753 54.7571 99.7557 54.7571C102.02 54.7571 103.83 53.8244 105.177 51.955C106.52 50.0897 107.191 47.4027 107.191 43.8981C107.191 40.677 106.566 38.2201 105.306 36.5397C104.169 34.9188 102.28 33.9706 100.281 34.017C99.0843 34.017 97.9125 34.3046 96.7615 34.8757C95.6105 35.4509 94.4678 36.3137 93.3419 37.4764M90.577 55.9979H89.547V27.0406C89.547 24.9288 89.4886 23.5648 89.3802 22.9485C89.3015 22.3874 88.9827 21.8864 88.5044 21.5721C88.0415 21.2722 87.2242 21.1202 86.0649 21.1202V19.9081C87.1074 19.9081 88.3543 19.7849 89.8097 19.5384C91.2693 19.2918 92.266 19.0453 92.7914 18.7988H93.3461V35.9193C94.4477 34.8953 95.7129 34.0569 97.0909 33.4377C98.3587 32.8912 99.6389 32.616 100.94 32.616C104.055 32.616 106.603 33.7006 108.588 35.8658C110.577 38.0352 111.57 40.7961 111.57 44.1652C111.57 47.5465 110.548 50.365 108.513 52.6165C106.47 54.8762 103.826 55.9979 100.573 55.9979C99.1058 56.0306 97.6553 55.685 96.3653 54.9954C95.1122 54.2774 94.0714 53.2491 93.3461 52.0126C92.1933 53.171 91.2561 54.52 90.577 55.9979ZM170.612 55.1269H152.676V52.6987C154.219 52.6987 155.357 52.5426 156.079 52.2344C156.8 51.9263 157.271 51.4784 157.488 50.8868C157.709 50.2952 157.822 49.4899 157.822 48.4669V26.0094L144.314 55.1269H142.709L129.018 26.0094V47.3329C129.018 48.4627 129.06 49.3256 129.135 49.9213C129.218 50.5211 129.418 51.0306 129.744 51.4579C130.142 51.9247 130.684 52.2519 131.287 52.3905C131.987 52.596 132.967 52.6987 134.214 52.6987V55.1269H120.974V52.6987C122.241 52.6987 123.222 52.5878 123.914 52.3823C124.511 52.2338 125.043 51.8995 125.432 51.4291C125.759 50.9821 125.961 50.4576 126.016 49.909C126.082 49.3173 126.116 48.4627 126.116 47.3329V27.0406C126.116 25.5246 126.036 24.4358 125.878 23.7661C125.71 23.085 125.227 22.5216 124.573 22.2459C123.864 21.9008 122.663 21.7282 120.974 21.7282V19.3001H134.056L145.924 44.5884L157.818 19.3001H170.612V21.7282C168.41 21.7282 166.992 22.0569 166.35 22.6979C165.708 23.3388 165.391 24.4235 165.391 25.9601V48.4669C165.391 49.4406 165.495 50.2212 165.704 50.8211C165.912 51.4209 166.404 51.8852 167.167 52.2098C167.93 52.5343 169.081 52.6987 170.612 52.6987V55.1269ZM201.1 42.5217L196.167 30.0317L191.471 42.5217H201.104H201.1ZM216.822 55.1269H199.966V52.6987C201.388 52.6987 202.426 52.596 203.077 52.3905C203.728 52.1892 204.053 51.7126 204.053 50.9525C204.049 50.4014 203.943 49.8556 203.74 49.342L202.051 45.1143H190.445L189.574 47.4397C189.082 48.7421 188.836 49.6871 188.836 50.2664C188.836 51.3223 189.244 51.992 190.062 52.2755C190.879 52.5549 191.834 52.6987 192.923 52.6987V55.1269H180.608V52.6987C181.592 52.6987 182.426 52.5097 183.114 52.1399C183.798 51.7702 184.453 51.0717 185.078 50.0446C185.704 49.0092 186.375 47.5548 187.097 45.6689L197.41 18.6139H199.912L210.809 46.5153C211.597 48.4874 212.176 49.8227 212.548 50.517C212.919 51.2155 213.423 51.7496 214.078 52.1276C214.724 52.5097 215.642 52.6987 216.818 52.6987V55.1269H216.822ZM250.642 28.8402C250.642 25.9847 249.775 24.0907 248.044 23.158C246.314 22.2254 244.049 21.7611 241.255 21.7611C240.868 21.7611 240.563 21.7611 240.346 21.7693C240.096 21.7804 239.846 21.7859 239.596 21.7858V36.1822H241.255C243.908 36.1822 246.134 35.7508 247.94 34.888C249.742 34.0252 250.642 32.012 250.642 28.8361V28.8402ZM265.468 55.1269H255.893C255.422 54.5895 254.984 54.0242 254.583 53.4341C254.066 52.6946 253.499 51.8318 252.886 50.8334L251.356 48.3641L248.929 44.3501C247.84 42.5505 247.014 41.322 246.468 40.6606C245.987 40.05 245.321 39.6066 244.566 39.3951C243.853 39.2061 242.644 39.1157 240.938 39.1157H239.591V48.471C239.591 49.457 239.7 50.25 239.908 50.8457C240.117 51.4456 240.617 51.9057 241.397 52.2221C242.181 52.5385 243.32 52.6987 244.817 52.6987V55.1269H226.885V52.6987C229.062 52.6987 230.463 52.3782 231.088 51.7455C231.714 51.1128 232.022 50.0199 232.022 48.471V25.8532C232.022 24.3207 231.718 23.232 231.113 22.591C230.509 21.946 229.095 21.6255 226.881 21.6255V19.1398L235.163 18.8769C235.797 18.844 236.518 18.8153 237.335 18.7947C238.157 18.7824 238.916 18.7701 239.621 18.7701C240.163 18.7701 241.068 18.7906 242.331 18.8235C244.112 18.8769 245.772 18.9837 247.319 19.1398C248.866 19.3042 250.088 19.5014 250.989 19.7479C252.306 20.0848 253.557 20.6395 254.742 21.4119C255.93 22.1884 256.898 23.2114 257.644 24.481C258.412 25.8265 258.8 27.3503 258.766 28.8936C258.784 31.4511 257.565 33.8643 255.484 35.3934C254.329 36.2685 252.815 36.9669 250.934 37.4805C252.215 38.2365 253.307 39.1733 254.204 40.2908C255.1 41.4124 256.506 43.4667 258.424 46.4619C259.529 48.171 260.447 49.4611 261.164 50.3322C261.885 51.2032 262.548 51.7948 263.157 52.0988C263.762 52.4111 264.534 52.6083 265.468 52.6987V55.1269ZM299.067 28.8402C299.067 25.9847 298.2 24.0907 296.469 23.158C294.738 22.2254 292.474 21.7611 289.68 21.7611C289.292 21.7611 288.988 21.7611 288.771 21.7693C288.521 21.7804 288.27 21.7859 288.02 21.7858V36.1822H289.68C292.332 36.1822 294.559 35.7508 296.365 34.888C298.166 34.0252 299.067 32.012 299.067 28.8361V28.8402ZM313.888 55.1269H304.317C303.846 54.5895 303.409 54.0242 303.008 53.4341C302.491 52.6946 301.924 51.8318 301.311 50.8334L299.78 48.3641L297.353 44.3501C296.265 42.5505 295.439 41.322 294.889 40.6606C294.408 40.0495 293.742 39.6061 292.987 39.3951C292.278 39.2061 291.069 39.1157 289.359 39.1157H288.016V48.471C288.016 49.457 288.12 50.25 288.333 50.8457C288.541 51.4456 289.042 51.9057 289.822 52.2221C290.606 52.5385 291.74 52.6987 293.241 52.6987V55.1269H275.305V52.6987C277.482 52.6987 278.887 52.3782 279.513 51.7455C280.138 51.1128 280.447 50.0199 280.447 48.471V25.8532C280.447 24.3207 280.143 23.232 279.538 22.591C278.929 21.946 277.52 21.6255 275.305 21.6255V19.1398L283.587 18.8769C284.221 18.844 284.943 18.8153 285.76 18.7947C286.581 18.7824 287.34 18.7701 288.041 18.7701C288.587 18.7701 289.492 18.7906 290.76 18.8235C292.537 18.8769 294.196 18.9837 295.743 19.1398C297.291 19.3042 298.512 19.5014 299.413 19.7479C300.727 20.0848 301.982 20.6395 303.166 21.4119C304.355 22.1884 305.322 23.2114 306.069 24.481C306.819 25.7464 307.191 27.2173 307.191 28.8936C307.191 30.0892 306.932 31.2519 306.415 32.3777C305.843 33.5686 304.982 34.6028 303.909 35.3893C302.754 36.2685 301.24 36.9669 299.359 37.4805C300.639 38.2365 301.732 39.1733 302.628 40.2908C303.525 41.4124 304.93 43.4667 306.849 46.4619C307.954 48.171 308.871 49.4611 309.593 50.3322C310.31 51.2032 310.973 51.7948 311.582 52.0988C312.191 52.4111 312.958 52.6083 313.888 52.6987V55.1269ZM341.678 55.1269H323.538V52.6987C325.048 52.6987 326.19 52.5508 326.957 52.2632C327.737 51.9715 328.242 51.536 328.48 50.9525C328.717 50.3732 328.834 49.5433 328.834 48.4669V25.9642C328.834 24.4111 328.513 23.3224 327.875 22.6855C327.229 22.0528 325.781 21.7323 323.538 21.7323V19.3042H341.678V21.7323C340.169 21.7323 339.022 21.8844 338.25 22.1843C337.475 22.4842 336.97 22.9197 336.732 23.4908C336.495 24.066 336.378 24.8877 336.378 25.9642V48.471C336.378 49.4981 336.495 50.2952 336.72 50.8786C336.949 51.462 337.437 51.9057 338.184 52.2262C338.934 52.5426 340.098 52.7028 341.678 52.7028V55.131V55.1269ZM382.572 37.1066C382.579 35.1927 382.406 33.2822 382.054 31.3998C381.742 29.6851 381.131 28.0365 380.249 26.5271C379.402 25.0861 378.183 23.8913 376.717 23.0635C375.219 22.213 373.372 21.7858 371.174 21.7858C368.151 21.7858 365.795 22.5376 364.093 24.0455C362.399 25.5497 361.197 27.5161 360.64 29.6948C360.014 32.1164 359.709 34.6077 359.731 37.1066C359.731 38.5857 359.827 40.1306 360.023 41.7329C360.215 43.3352 360.678 44.9787 361.42 46.6632C362.158 48.3436 363.334 49.7611 364.952 50.9115C366.57 52.066 368.664 52.6453 371.229 52.6453C373.777 52.6453 375.849 52.0495 377.442 50.8622C379.031 49.6707 380.194 48.2162 380.924 46.4988C381.611 44.9277 382.072 43.2696 382.292 41.5727C382.472 40.0905 382.565 38.5994 382.572 37.1066ZM391.116 37.2135C391.131 40.4081 390.332 43.5554 388.793 46.3674C387.25 49.2105 384.957 51.4949 381.925 53.2123C378.889 54.9296 375.307 55.7883 371.174 55.7883C367.796 55.7883 364.831 55.2419 362.263 54.149C359.698 53.0602 357.6 51.5976 355.97 49.7652C354.386 48.0038 353.16 45.959 352.358 43.742C351.589 41.6301 351.192 39.4039 351.186 37.1601C351.186 33.9718 351.933 30.9602 353.43 28.1212C354.919 25.2863 357.175 23.0019 360.177 21.2681C363.184 19.5343 366.783 18.6673 370.966 18.6673C374.782 18.6673 378.026 19.2918 380.699 20.5409C383.368 21.794 385.453 23.3676 386.946 25.2698C388.443 27.1721 389.511 29.1689 390.153 31.256C390.795 33.3432 391.112 35.3276 391.112 37.2135M436.755 29.4729H434.249C434.019 27.2543 433.532 25.6149 432.785 24.559C432.034 23.499 431.23 22.8499 430.371 22.6034C429.399 22.3439 428.395 22.2194 427.389 22.2336H422.856V48.471C422.856 49.5104 422.96 50.3157 423.169 50.8868C423.381 51.462 423.877 51.9057 424.649 52.2221C425.42 52.5385 426.555 52.6946 428.048 52.6946V55.1269H410.116V52.6946C412.314 52.6946 413.727 52.3782 414.361 51.7496C414.995 51.1128 415.312 50.0199 415.312 48.471V22.2336H411.517C410.016 22.2336 408.781 22.3527 407.793 22.591C406.809 22.8293 405.946 23.4785 405.195 24.5467C404.448 25.6108 404.023 27.2502 403.919 29.4729H401.417V19.3001H436.755V29.4729ZM482.623 29.4729H480.117C479.888 27.2543 479.4 25.6149 478.653 24.559C477.903 23.499 477.102 22.8499 476.239 22.6034C475.267 22.3441 474.264 22.2197 473.257 22.2336H468.728V48.471C468.728 49.5104 468.832 50.3157 469.045 50.8868C469.254 51.462 469.746 51.9057 470.521 52.2221C471.293 52.5385 472.427 52.6946 473.92 52.6946V55.1269H455.988V52.6946C458.186 52.6946 459.6 52.3782 460.233 51.7496C460.867 51.1128 461.184 50.0199 461.184 48.471V22.2336H457.389C455.892 22.2336 454.654 22.3527 453.665 22.591C452.681 22.8293 451.818 23.4785 451.067 24.5467C450.321 25.6108 449.895 27.2502 449.791 29.4729H447.289V19.3001H482.628V29.4729H482.623ZM493.007 15.4791H490.105V14H497.594V15.4791H494.692V23.6059H493.007V15.4791Z" fill="white"/>
<mask id="mask0_413_1507" style="mask-type:luminance" maskUnits="userSpaceOnUse" x="499" y="14" width="10" height="10">
<path d="M499.033 14H509V23.61H499.033V14Z" fill="white"/>
</mask>
<g mask="url(#mask0_413_1507)">
<path d="M507.315 16.3298L504.371 23.6143H503.65L500.718 16.3298V23.6143H499.033V13.9961H501.406L504.012 20.4671L506.627 14.0002H509.004V23.6143H507.315V16.3298Z" fill="white"/>
</g>
</svg>
